<svg width="36" height="19" viewBox="0 0 36 19" fill="none" xmlns="http://www.w3.org/2000/svg">
<path d="M0.86 15L4.58 0.4H7.42L11.16 15H8.96L8.08 11.3H3.94L3.06 15H0.86ZM4.34 9.5H7.66L6.66 5.3C6.48667 4.55333 6.34 3.90667 6.22 3.36C6.11333 2.81333 6.04 2.43333 6 2.22C5.96 2.43333 5.88667 2.81333 5.78 3.36C5.67333 3.90667 5.52667 4.54667 5.34 5.28L4.34 9.5ZM20.2922 18.6L18.2322 15.2C18.1389 15.2 18.0589 15.2 17.9922 15.2C17.0722 15.2 16.2722 15.02 15.5922 14.66C14.9255 14.3 14.4055 13.8 14.0322 13.16C13.6589 12.5067 13.4722 11.74 13.4722 10.86V4.52C13.4722 3.21333 13.8789 2.16667 14.6922 1.38C15.5189 0.593333 16.6189 0.2 17.9922 0.2C18.9122 0.2 19.7055 0.379999 20.3722 0.739999C21.0522 1.1 21.5789 1.60667 21.9522 2.26C22.3255 2.9 22.5122 3.65333 22.5122 4.52V10.86C22.5122 11.7533 22.3189 12.5333 21.9322 13.2C21.5455 13.8667 21.0055 14.3667 20.3122 14.7L22.6922 18.6H20.2922ZM17.9922 13.3C18.7255 13.3 19.2989 13.08 19.7122 12.64C20.1389 12.2 20.3522 11.6067 20.3522 10.86V4.52C20.3522 3.77333 20.1389 3.18667 19.7122 2.76C19.2989 2.32 18.7255 2.1 17.9922 2.1C17.2589 2.1 16.6789 2.32 16.2522 2.76C15.8389 3.18667 15.6322 3.77333 15.6322 4.52V10.86C15.6322 11.6067 15.8389 12.2 16.2522 12.64C16.6789 13.08 17.2589 13.3 17.9922 13.3ZM24.8444 15L28.5644 0.4H31.4044L35.1444 15H32.9444L32.0644 11.3H27.9244L27.0444 15H24.8444ZM28.3244 9.5H31.6444L30.6444 5.3C30.471 4.55333 30.3244 3.90667 30.2044 3.36C30.0977 2.81333 30.0244 2.43333 29.9844 2.22C29.9444 2.43333 29.871 2.81333 29.7644 3.36C29.6577 3.90667 29.511 4.54667 29.3244 5.28L28.3244 9.5Z" fill="white"/>
</svg>
