<svg width="359" height="313" viewBox="0 0 359 313" fill="none" xmlns="http://www.w3.org/2000/svg">
<g clip-path="url(#clip0_8_383)">
<path d="M323.688 162.89C323.735 201.621 308.779 238.861 281.965 266.783C280.349 268.477 278.688 270.13 276.984 271.743C274.389 274.215 271.706 276.59 268.935 278.871C243.02 300.242 210.668 312.252 177.098 312.962C175.979 312.987 174.857 313 173.73 313C146.957 313 113.283 298.686 82.7237 278.871C80.1954 277.231 77.6897 275.554 75.2064 273.839C74.0457 273.044 72.8906 272.239 71.7411 271.422C59.9549 263.091 48.7674 253.943 38.2612 244.044C31.3824 237.582 24.932 230.678 18.9508 223.375C-4.52982 194.383 -9.70881 168.26 23.7668 162.89C27.7302 162.256 31.5768 161.579 35.3066 160.858C40.7094 159.819 45.8799 158.696 50.8183 157.491C57.4704 155.873 63.72 154.118 69.5674 152.226C71.5343 151.593 73.4562 150.946 75.333 150.287C103.081 140.532 121.653 127.81 134.294 114.007C136.438 111.671 138.415 109.306 140.225 106.913C142.993 103.271 145.507 99.4428 147.75 95.4551C150.846 89.9144 153.446 84.1106 155.521 78.1115L155.635 77.7819C165.693 48.7393 162.633 21.8008 173.73 12.7846C221.164 -25.76 280.218 29.1311 307.936 93.8623C309.333 97.124 310.647 100.405 311.878 103.707C312.431 105.181 312.965 106.658 313.478 108.139C314.829 111.996 316.054 115.863 317.154 119.74C317.577 121.219 317.979 122.696 318.362 124.172C318.771 125.765 319.164 127.354 319.527 128.942C322.224 140.574 323.688 152.045 323.688 162.89Z" fill="#F2F2F2"/>
<path d="M177.098 312.962C175.979 312.987 174.857 313 173.73 313C146.957 313 113.283 298.686 82.7238 278.871C80.1955 277.231 77.6897 275.554 75.2064 273.839L77.3844 260.572L143.318 251.809L176.41 277.138L177.098 312.962Z" fill="#2F2E41"/>
<path d="M141.862 278.871H141.599L141.824 278.842L141.862 278.871Z" fill="#2F2E41"/>
<path d="M119.372 103.535C135.299 103.535 148.21 90.6117 148.21 74.6695C148.21 58.7273 135.299 45.8036 119.372 45.8036C103.445 45.8036 90.5342 58.7273 90.5342 74.6695C90.5342 90.6117 103.445 103.535 119.372 103.535Z" fill="#FFB6B6"/>
<path d="M144.626 53.5055C144.626 53.5055 152.168 39.0726 135.575 37.7605C135.575 37.7605 121.429 24.9155 107.01 35.4122C107.01 35.4122 99.145 35.4122 94.8443 44.3209C94.8443 44.3209 88.6586 41.9726 87.2993 48.2571C87.2993 48.2571 82.773 61.3781 87.2993 73.1869C91.8255 84.9957 93.3289 86.3077 93.3289 86.3077C93.3289 86.3077 85.8914 61.55 103.995 60.2378C122.099 58.9257 142.357 47.6011 143.866 62.0341C145.374 76.467 147.645 80.0232 147.645 80.0232C147.645 80.0232 161.974 59.41 144.626 53.5055Z" fill="#2F2E41"/>
<path d="M193.969 145.809L193.876 146.299L192.833 151.808L185.628 189.918L185.202 192.161L184.307 196.906L183.083 203.378L180.369 217.722L179.592 221.833L179.301 223.375L179.2 223.916L178.394 228.171L178.149 229.455L176.182 244.044L174.464 256.757L180.213 262.511L176.786 265.942L174.536 278.841L174.54 278.871H82.7238C79.0094 276.462 75.3485 273.979 71.7411 271.422L72.4966 265.76C72.4966 265.76 75.0967 255.65 74.0034 254.442C72.9145 253.233 70.5254 251.074 70.5254 251.074L73.535 244.044L73.9528 243.068L73.2522 228.521L73.2353 228.171L73.0032 223.375L72.9736 222.758L72.9272 221.833L72.0366 203.378L72.0197 203.074L71.7496 197.48L71.4963 192.161L71.3865 189.918L70.3018 167.47L69.5674 152.226L68.9258 138.956L71.5047 138.081L99.0881 128.697L110.514 113.83L134.294 114.007L145.935 114.096L165.36 132.128L169.779 134.241L169.813 134.257L172.983 135.774L181.019 139.615L189.516 143.679L193.876 145.762L193.969 145.809Z" fill="#CACACA"/>
<path d="M113.587 235.565C111.844 236.241 109.975 236.526 108.11 236.4C106.246 236.274 104.431 235.741 102.795 234.837C101.159 233.934 99.74 232.682 98.6391 231.171C97.5383 229.659 96.7819 227.924 96.4234 226.088L51.4464 219.701L67.0817 201.997L107.395 210.777C110.517 210.378 113.675 211.14 116.273 212.917C118.871 214.694 120.727 217.363 121.491 220.418C122.254 223.474 121.871 226.703 120.414 229.495C118.957 232.286 116.528 234.446 113.587 235.565Z" fill="#FFB6B6"/>
<path d="M93.5333 203.378C92.7002 202.321 91.5207 201.592 90.2031 201.321L71.7495 197.48L69.8544 197.087C68.753 196.857 67.7126 196.397 66.8012 195.737C65.8898 195.076 65.128 194.231 64.5656 193.255C63.9822 192.231 63.6293 191.092 63.5315 189.917C63.4435 188.849 63.5713 187.775 63.9071 186.757L70.3017 167.47L74.4508 154.956C74.9537 153.446 75.2504 151.876 75.333 150.287C75.5642 145.89 74.2051 141.557 71.5047 138.081C69.1306 135.026 65.8377 132.816 62.1126 131.779C58.3875 130.741 54.4277 130.93 50.8183 132.318C50.7127 132.356 50.603 132.398 50.4975 132.441C47.9089 133.475 45.5962 135.098 43.7422 137.181C41.8881 139.265 40.5434 141.751 39.8145 144.444L35.3066 160.858L26.008 194.696C25.0772 198.086 24.8892 201.638 25.4568 205.108C26.0244 208.577 27.3342 211.883 29.2966 214.799C31.2591 217.715 33.8278 220.173 36.8269 222.003C39.8261 223.833 43.1848 224.993 46.6734 225.403L73.2521 228.521L85.5517 229.966C86.9739 230.137 88.4084 229.766 89.5692 228.926C90.73 228.085 91.532 226.838 91.8154 225.433C91.8353 225.356 91.8508 225.279 91.8619 225.2L92.1573 223.375L94.6603 208.005L94.6856 207.848C94.816 207.064 94.7809 206.261 94.5824 205.491C94.3839 204.721 94.0266 204.001 93.5333 203.378Z" fill="#CACACA"/>
<path d="M142.236 236.058C144.056 236.481 145.947 236.499 147.775 236.111C149.603 235.724 151.325 234.94 152.817 233.814C154.31 232.689 155.538 231.249 156.415 229.597C157.292 227.945 157.796 226.121 157.893 224.253L201.52 211.581L183.547 196.261L144.873 210.643C141.727 210.689 138.707 211.889 136.385 214.015C134.064 216.141 132.602 219.045 132.277 222.178C131.952 225.311 132.786 228.454 134.622 231.012C136.457 233.57 139.166 235.365 142.236 236.058Z" fill="#FFB6B6"/>
<path d="M223.181 183.234L202.431 135.432C200.734 131.508 197.703 128.312 193.876 126.412C192.693 125.829 191.45 125.375 190.17 125.06C189.972 125.009 189.773 124.962 189.575 124.924C186.86 124.331 184.044 124.383 181.353 125.077C178.893 125.709 176.593 126.854 174.605 128.436C172.617 130.018 170.984 132.001 169.813 134.257C169.8 134.276 169.789 134.296 169.779 134.317C168.471 136.849 167.775 139.654 167.748 142.505C167.721 145.356 168.363 148.173 169.623 150.731L169.88 151.246L184.544 180.724C185.044 181.732 185.326 182.835 185.371 183.959C185.416 185.084 185.223 186.206 184.805 187.251C184.386 188.296 183.752 189.24 182.943 190.022C182.134 190.804 181.169 191.407 180.112 191.789L179.082 192.161L160.561 198.858C159.171 199.354 158.028 200.371 157.372 201.694C156.716 203.017 156.599 204.543 157.045 205.951L157.091 206.099L162.283 222.729C162.308 222.805 162.333 222.881 162.363 222.957C162.409 223.1 162.465 223.24 162.532 223.375C163.083 224.614 164.059 225.615 165.282 226.198C166.505 226.781 167.896 226.908 169.205 226.557L179.2 223.916L181.239 223.375L207.049 216.552C210.445 215.654 213.607 214.031 216.319 211.796C219.031 209.561 221.228 206.765 222.76 203.601C224.292 200.437 225.122 196.979 225.195 193.464C225.268 189.948 224.581 186.459 223.181 183.234Z" fill="#CACACA"/>
<path d="M18.9508 223.375C24.9319 230.678 31.3824 237.582 38.2612 244.044H229.031C230.869 244.047 232.631 244.779 233.93 246.081C235.23 247.382 235.96 249.146 235.962 250.986L236.236 299.374C247.972 293.977 258.963 287.086 268.935 278.871C271.704 276.593 274.387 274.217 276.985 271.743C278.686 270.129 280.346 268.476 281.965 266.783C294.106 254.123 303.937 239.431 311.013 223.375H18.9508Z" fill="#3F3D56"/>
<path d="M281.965 266.783C280.349 268.477 278.688 270.13 276.985 271.743H236.376V266.783H281.965Z" fill="white"/>
<path d="M193.589 108.139C193.388 107.768 193.091 107.458 192.73 107.243C192.368 107.027 191.954 106.913 191.533 106.913H53.1567C52.5363 106.915 51.9418 107.163 51.5035 107.602C51.0652 108.042 50.8188 108.637 50.8183 109.258V192.161H193.876V109.258C193.878 108.866 193.779 108.481 193.589 108.139Z" fill="#3F3D56"/>
<path d="M50.693 189.917V200.147C50.693 200.571 50.7764 200.991 50.9386 201.383C51.1007 201.775 51.3384 202.131 51.638 202.43C51.9376 202.73 52.2932 202.968 52.6847 203.131C53.0761 203.293 53.4957 203.376 53.9193 203.376H106.721V223.566H106.019C105.964 223.566 105.91 223.577 105.859 223.598C105.808 223.619 105.762 223.65 105.723 223.689C105.684 223.728 105.653 223.774 105.632 223.825C105.611 223.876 105.6 223.931 105.6 223.986V225.39C105.6 225.445 105.611 225.5 105.632 225.551C105.653 225.601 105.684 225.648 105.723 225.687C105.762 225.726 105.808 225.757 105.859 225.778C105.91 225.799 105.964 225.81 106.019 225.81H138.798C138.853 225.81 138.907 225.799 138.958 225.778C139.009 225.757 139.055 225.726 139.094 225.687C139.133 225.648 139.164 225.601 139.185 225.551C139.206 225.5 139.217 225.445 139.217 225.39V223.986C139.217 223.931 139.206 223.876 139.185 223.825C139.164 223.774 139.133 223.728 139.094 223.689C139.055 223.65 139.009 223.619 138.958 223.598C138.907 223.577 138.853 223.566 138.798 223.566H138.096V203.376H190.898C191.322 203.376 191.741 203.293 192.133 203.131C192.524 202.968 192.88 202.73 193.179 202.43C193.479 202.131 193.717 201.775 193.879 201.383C194.041 200.991 194.124 200.571 194.124 200.147V189.917H50.693Z" fill="#3F3D56"/>
<path d="M120.676 160.554C127.973 160.554 133.89 154.632 133.89 147.327C133.89 140.022 127.973 134.1 120.676 134.1C113.378 134.1 107.462 140.022 107.462 147.327C107.462 154.632 113.378 160.554 120.676 160.554Z" fill="#325BE9"/>
<path d="M154.343 73.0923H152.233C152.233 57.1218 136.443 46.6565 120.513 46.648C118.196 46.6412 115.884 46.8663 113.612 47.3198C111.054 47.831 108.399 48.4436 105.791 49.2422C95.5045 52.3982 85.9654 58.4991 85.9654 73.0923C85.9632 75.9263 86.3235 78.7491 87.0375 81.4916L84.9946 82.0239C84.2368 79.1073 83.8539 76.1059 83.8549 73.0923C83.8549 60.3412 89.0846 51.5828 98.1172 46.3607C102.866 43.6145 108.661 41.8442 115.3 40.9823C118.063 40.6144 120.856 40.5294 123.637 40.7288C141.955 42.047 154.343 56.1078 154.343 73.0923Z" fill="#325BE9"/>
<path d="M157.859 74.2625L157.028 68.1109C156.823 66.5574 156.075 65.1266 154.917 64.0718C154.174 63.3841 153.284 62.8747 152.315 62.5819C151.347 62.2891 150.324 62.2207 149.325 62.3818L148.004 62.5635C147.642 62.6111 147.294 62.7301 146.978 62.9136C146.663 63.0971 146.388 63.3414 146.167 63.6324C145.945 63.9224 145.783 64.2535 145.69 64.6067C145.596 64.9598 145.574 65.328 145.623 65.6899L147.543 79.8606C147.623 80.4381 147.881 80.9762 148.283 81.3985C148.684 81.8209 149.208 82.1061 149.781 82.2139C149.95 82.2479 150.123 82.2649 150.295 82.2646C150.42 82.2646 150.544 82.2561 150.667 82.2392L152.144 82.0407C153.045 81.921 153.912 81.6183 154.691 81.1512C155.471 80.684 156.147 80.0622 156.677 79.324C156.791 79.1635 156.901 78.9987 157.002 78.8297C157.793 77.4472 158.095 75.838 157.859 74.2625Z" fill="#325BE9"/>
<path d="M147.151 62.8213C146.763 63.0097 146.426 63.2878 146.167 63.6325C145.945 63.9225 145.783 64.2536 145.69 64.6068C145.596 64.9599 145.574 65.3281 145.623 65.6901L147.543 79.8607C147.623 80.4383 147.881 80.9763 148.283 81.3986C148.684 81.821 149.208 82.1062 149.781 82.214L147.151 62.8213Z" fill="white"/>
<path d="M157.859 74.2625L157.028 68.1109C156.823 66.5574 156.075 65.1266 154.917 64.0718L156.829 78.1706C156.858 78.3969 156.916 78.6185 157.002 78.8297C157.794 77.4472 158.095 75.838 157.859 74.2625Z" fill="#3F3D56"/>
<path d="M151.288 78.6948C151.865 78.6164 152.155 77.2407 151.936 75.6221C151.717 74.0036 151.071 72.7551 150.493 72.8335C149.916 72.9119 149.625 74.2876 149.845 75.9061C150.064 77.5247 150.71 78.7732 151.288 78.6948Z" fill="#3F3D56"/>
<path d="M150.021 71.0898C150.599 71.0114 150.889 69.6357 150.67 68.0172C150.45 66.3986 149.804 65.1501 149.227 65.2285C148.649 65.3069 148.359 66.6826 148.578 68.3011C148.798 69.9197 149.444 71.1682 150.021 71.0898Z" fill="#3F3D56"/>
<path d="M158.041 74.0473C158.618 73.9689 158.909 72.5932 158.689 70.9747C158.47 69.3561 157.824 68.1076 157.247 68.186C156.669 68.2644 156.379 69.6401 156.598 71.2587C156.817 72.8772 157.463 74.1257 158.041 74.0473Z" fill="#3F3D56"/>
<path d="M120.513 46.6479C118.196 46.6411 115.884 46.8662 113.612 47.3197C111.054 47.8309 108.399 48.4435 105.791 49.2421C101.718 49.0435 98.7208 47.9872 98.1172 46.3606C102.866 43.6144 108.661 41.8441 115.3 40.9822C118.063 40.6143 120.856 40.5293 123.637 40.7287C123.931 40.9014 124.185 41.1345 124.383 41.4126C124.581 41.6908 124.718 42.0078 124.785 42.3426C124.983 43.813 123.307 45.3762 120.513 46.6479Z" fill="#3F3D56"/>
<path d="M93.5671 87.753L90.3171 74.2288C90.2012 73.7408 89.9438 73.298 89.5774 72.956C89.2109 72.614 88.7517 72.388 88.2573 72.3064C88.1177 72.2846 87.9766 72.2733 87.8352 72.2726C87.6361 72.2733 87.4378 72.2974 87.2443 72.3444L85.9865 72.6486C84.367 73.0407 82.9691 74.0598 82.0994 75.4824C81.2297 76.905 80.9594 78.6148 81.3478 80.2367L82.804 86.3038C83.1364 87.7321 83.9283 89.0117 85.0579 89.9458C85.2409 90.0936 85.4326 90.2305 85.6319 90.3556C86.3394 90.7994 87.1286 91.0969 87.9529 91.2304C88.7772 91.364 89.6198 91.3308 90.431 91.133L91.6846 90.8288C92.0161 90.7514 92.328 90.6061 92.6006 90.4021C93.0059 90.1062 93.3143 89.6964 93.4864 89.2247C93.6585 88.753 93.6866 88.2407 93.5671 87.753Z" fill="#325BE9"/>
<path d="M86.7537 85.2366C87.3203 85.1001 87.4701 83.7021 87.0884 82.1141C86.7066 80.526 85.9378 79.3493 85.3712 79.4858C84.8046 79.6223 84.6547 81.0203 85.0365 82.6083C85.4183 84.1964 86.1871 85.3731 86.7537 85.2366Z" fill="#3F3D56"/>
<path d="M82.5329 86.5041C83.0995 86.3676 83.2493 84.9696 82.8675 83.3815C82.4857 81.7935 81.7169 80.6168 81.1503 80.7532C80.5837 80.8897 80.4339 82.2877 80.8157 83.8758C81.1974 85.4638 81.9662 86.6405 82.5329 86.5041Z" fill="#3F3D56"/>
<path d="M93.774 87.7023L90.5239 74.1781C90.3973 73.6501 90.1179 73.1713 89.7207 72.8016C89.3236 72.4318 88.8263 72.1876 88.2911 72.0994L92.7272 90.571C93.1653 90.2499 93.4985 89.806 93.6848 89.2954C93.8711 88.7849 93.9022 88.2305 93.774 87.7023Z" fill="white"/>
<path d="M82.0822 77.5581C81.9925 77.182 81.8242 76.8292 81.5883 76.5229C81.1315 77.7073 81.0475 79.0032 81.3478 80.2367L82.804 86.3038C83.1364 87.7322 83.9283 89.0117 85.0579 89.9458L82.0822 77.5581Z" fill="#3F3D56"/>
</g>
<defs>
<clipPath id="clip0_8_383">
<rect width="359" height="313" fill="white"/>
</clipPath>
</defs>
</svg>
