<svg width="424" height="217" viewBox="0 0 424 217" fill="none" xmlns="http://www.w3.org/2000/svg">
<g clip-path="url(#clip0_8_542)">
<path d="M405.18 119.97L403.852 130.559L400.555 156.862H334.333C334.85 150.966 335.557 142.481 336.312 133.321C336.387 132.406 336.465 131.486 336.539 130.559C338.433 107.533 340.505 81.4766 340.505 81.4766L349.211 83.1005L366.103 86.2454L372.986 87.5262L391.418 90.9626C400.607 92.6723 406.929 105.995 405.18 119.97Z" fill="#F2F2F2"/>
<path d="M355.089 38.8668L363.232 53.1356L347.58 64.2421L340.903 46.703L355.089 38.8668Z" fill="#FFB6B6"/>
<path d="M344.721 52.3657C355.863 52.3657 364.896 43.3218 364.896 32.1657C364.896 21.0095 355.863 11.9657 344.721 11.9657C333.579 11.9657 324.547 21.0095 324.547 32.1657C324.547 43.3218 333.579 52.3657 344.721 52.3657Z" fill="#FFB6B6"/>
<path d="M343.273 36.6815C341.671 34.2404 342.299 32.9636 340.958 32.0665C340.958 32.0665 340.419 31.7055 336.556 31.4997C335.691 25.268 334.612 24.5123 334.612 24.5122C333.368 23.6413 331.521 23.9243 330.373 24.457C327.943 25.5836 328.225 28.0173 326.589 28.483C324.33 29.1264 320.219 25.4996 319.814 21.3476C319.483 17.9608 321.663 14.6714 322.527 14.8454C323.384 15.018 325.436 12.3951 326.544 12.4356C327.3 12.4632 330.392 11.1178 331.223 11.223C332.132 11.3379 335.126 12.9026 335.251 12.5451C336.118 10.061 335.863 9.37174 336.599 8.66109C337.903 7.40182 340.036 8.27874 343.381 8.74953C350.266 9.71817 351.467 7.44529 354.996 8.98586C356.778 9.76408 358.269 11.8629 361.179 16.0286C365.248 21.8544 367.283 24.7673 367.296 28.1648C367.309 31.6296 365.634 31.4096 364.898 36.539C364.078 42.2488 365.819 44.8597 363.917 46.7147C362.447 48.1484 359.46 48.4887 357.89 47.2304C355.202 45.0762 358.72 39.8779 355.746 36.08C353.92 33.7488 350.248 32.7115 348.567 33.8638C346.665 35.1668 347.713 38.9913 346.375 39.354C345.23 39.6646 343.552 37.1069 343.273 36.6815Z" fill="#2F2E41"/>
<path d="M390.268 116.24C389.706 125.874 387.47 128.915 386.688 140.293C386.517 142.79 386.414 145.69 386.414 149.148C386.414 150.029 386.419 150.881 386.419 151.714C386.419 153.487 386.385 155.162 386.179 156.861C386.023 158.218 385.754 159.585 385.308 161.024H341.857C341.852 161.015 341.852 161.005 341.847 160.995C341.593 159.888 341.432 158.83 341.309 157.817C341.27 157.493 341.236 157.175 341.207 156.861C341.167 156.494 341.133 156.132 341.099 155.774C340.967 154.349 340.835 153.002 340.522 151.714C340.101 149.936 339.338 148.261 337.773 146.645C337.132 145.984 336.491 145.47 335.865 145.019C335.743 144.936 335.625 144.852 335.503 144.769C333.771 143.579 332.133 142.722 330.714 140.293C330.69 140.258 330.67 140.219 330.651 140.185C330.406 139.759 329.77 138.642 329.31 137.153C328.826 135.606 328.533 133.661 329.061 131.673C330.318 126.961 334.975 126.491 338.78 121.73C339.191 121.216 339.597 120.648 339.984 120.016C341.705 117.215 342.17 114.746 342.718 111.813C342.806 111.338 342.884 110.867 342.948 110.412C342.997 110.069 343.041 109.731 343.075 109.398C343.378 106.601 343.232 104.192 342.875 102.037C341.711 94.9793 338.277 90.6106 340.703 84.2779C341.466 82.2896 342.547 80.7957 343.638 79.5175C345.946 76.8089 348.319 75.0507 347.908 71.554C347.492 68.0275 344.821 67.5425 344.523 64.4619C344.371 62.9046 344.88 61.2638 345.834 59.6525V59.6477C348.886 54.4609 356.507 49.6857 361.35 49.8375C362.245 49.8621 363.037 50.0628 363.698 50.4497C366.09 51.8602 365.092 54.9408 368.756 59.2607C371.48 62.4686 374.562 63.7519 375.731 64.3591C380.363 66.7787 384.13 73.9145 386.688 83.0389C386.707 83.1075 386.727 83.1759 386.746 83.2495C388.326 88.9651 389.442 95.4545 389.995 102.037C390.229 104.824 390.366 107.625 390.395 110.397C390.42 112.611 390.371 114.531 390.268 116.24Z" fill="#325BE9"/>
<path d="M357.73 149.246L356.845 151.714L356.287 153.262L354.996 156.861L353.499 161.025H343.877L345.491 156.861L346.24 154.922L347.482 151.714L349.566 146.327L357.73 149.246Z" fill="#FFB6B6"/>
<path d="M386.839 82.1964C386.815 82.5149 386.781 82.8674 386.746 83.2496C386.365 87.1383 385.465 94.0979 384.149 102.037C383.455 106.224 382.642 110.686 381.728 115.119C379.762 124.684 377.316 134.102 374.552 140.293C374.058 141.409 373.549 142.418 373.03 143.31C372.634 143.991 372.218 144.661 371.783 145.323C370.375 147.492 368.794 149.549 367.156 151.469C367.092 151.552 367.019 151.631 366.946 151.714C366.682 152.027 366.407 152.336 366.134 152.645C364.793 154.158 363.424 155.568 362.098 156.861C360.484 158.439 358.928 159.835 357.534 161.025H341.911L341.847 160.995L339.597 159.996C339.597 159.996 340.238 159.242 341.309 157.817C341.53 157.528 341.764 157.209 342.019 156.861C342.332 156.435 342.669 155.965 343.031 155.456C343.784 154.388 344.64 153.134 345.56 151.714C347.341 148.966 349.37 145.587 351.42 141.674C351.655 141.218 351.894 140.758 352.134 140.293C352.139 140.278 352.149 140.263 352.154 140.249C352.56 139.455 352.961 138.637 353.362 137.805C356.761 130.723 357.735 124.845 358.014 122.94C358.405 120.247 358.948 116.48 358.801 112.337C358.703 109.604 358.307 106.714 357.363 103.844V103.839C357.168 103.237 356.947 102.635 356.698 102.037C356.253 100.964 355.724 99.9064 355.098 98.8633C352.335 94.2693 350.09 94.0782 348.304 89.0727C347.776 87.5888 346.577 84.2389 346.944 80.7027V80.6979C346.989 80.2619 347.062 79.8212 347.16 79.3802V79.3754C347.184 79.253 347.218 79.1258 347.253 79.0033C347.531 77.9209 347.991 76.8481 348.691 75.8294C350.055 73.851 351.919 72.6753 353.587 71.9751L353.592 71.9701C355.519 71.167 357.182 70.9956 357.505 70.9662C364.651 70.3296 370.194 76.3438 373.222 79.6301C374.39 80.8985 375.462 81.9615 376.44 82.8282C384.056 89.6361 386.145 85.2868 386.688 83.0389C386.771 82.6912 386.815 82.3925 386.839 82.1964Z" fill="#325BE9"/>
<path d="M386.864 81.942C386.864 81.9663 386.859 82.0496 386.839 82.1868C386.849 82.1132 386.854 82.0398 386.859 81.9711C386.859 81.9565 386.859 81.9467 386.864 81.942Z" fill="#325BE9"/>
<path d="M348.016 185.288H85.8069C83.3707 185.288 81.3849 187.271 81.3849 189.71C81.3849 192.154 83.3707 194.138 85.8069 194.138H348.016C350.451 194.138 352.433 192.154 352.433 189.71C352.433 187.271 350.451 185.288 348.016 185.288Z" fill="#E6E6E6"/>
<path d="M289.826 208.15H143.991C141.555 208.15 139.574 210.133 139.574 212.573C139.574 215.012 141.555 217 143.991 217H289.826C292.262 217 294.248 215.012 294.248 212.573C294.248 210.133 292.262 208.15 289.826 208.15Z" fill="#E6E6E6"/>
<path d="M114.984 39.8057L131.509 32.8423L138.597 47.3911L121.232 54.4881L114.984 39.8057Z" fill="#FFB6B6"/>
<path opacity="0.1" d="M114.984 39.8057L131.509 32.8423L138.597 47.3911L121.232 54.4881L114.984 39.8057Z" fill="black"/>
<path d="M117.333 34.2617L133.636 53.0687C133.636 53.0687 122.295 88.9083 110.954 92.1019C99.6134 95.2956 78.7038 110.909 78.7038 110.909L52.4781 93.8762L65.2366 75.0692C65.2366 75.0692 96.0694 32.8423 104.221 32.8423C112.372 32.8423 117.333 34.2617 117.333 34.2617Z" fill="#325BE9"/>
<path d="M95.3074 156.862H57.3583L54.959 153.65L45.1633 140.539L42.9093 137.522C42.9093 137.522 34.4037 121.909 36.1757 107.715C37.9477 93.5213 56.3766 90.3277 56.3766 90.3277H57.135L79.6961 110.178L78.3494 128.651L85.4941 140.539L95.3074 156.862Z" fill="#2F2E41"/>
<path d="M65.1302 156.862H54.9589V141.781L65.1302 156.862Z" fill="#2F2E41"/>
<path d="M284.511 133.967L283.246 140.539L280.106 156.862H217.026C217.519 153.203 218.192 147.937 218.912 142.253C218.983 141.685 219.057 141.114 219.128 140.539C220.932 126.249 222.906 110.078 222.906 110.078L231.199 111.086L247.288 113.038L253.845 113.833L271.402 115.965C280.156 117.026 286.177 125.294 284.511 133.967Z" fill="#F2F2F2"/>
<path d="M373.781 156.862H339.567C340.088 156.248 340.382 155.893 340.382 155.893L350.639 154.197L371.772 150.705C371.772 150.705 372.736 153.2 373.781 156.862Z" fill="#2F2E41"/>
<path d="M228.655 46.9032L243.534 67.972L217.581 68.7481L214.795 48.9483L228.655 46.9032Z" fill="#A0616A"/>
<path opacity="0.1" d="M228.655 46.9032L243.534 67.972L217.581 68.7481L214.795 48.9483L228.655 46.9032Z" fill="black"/>
<path d="M155.279 90.5562C153.37 85.0419 148.98 81.5583 145.476 82.7754C141.971 83.9926 140.678 89.4487 142.589 94.9648C143.322 97.1787 144.574 99.1847 146.24 100.815L154.623 124.077L165.442 119.905L156.029 97.4157C156.329 95.102 156.072 92.7499 155.279 90.5562Z" fill="#A0616A"/>
<path d="M255.995 79.8207L255.975 101.292L253.98 109.223L249.876 125.536L246.888 140.539L244.662 151.716L243.869 155.708C243.27 156.109 242.674 156.493 242.079 156.862H190.241C187.296 155.091 185.648 153.714 185.648 153.714C185.648 153.714 186.463 152.948 187.395 151.716C188.968 149.637 190.872 146.23 189.706 142.976C189.461 142.295 189.397 141.465 189.472 140.539C189.947 134.428 196.347 124.095 196.347 124.095L195.022 108.758L194.44 102.038L198.538 69.2673L211.896 61.4926L214.202 61.2692L236.965 60.0379L246.373 60.5808L246.802 60.6979L255.995 79.8207Z" fill="#CCCCCC"/>
<path d="M257.006 156.862H245.665L245.166 151.716L245.155 151.613L248.366 151.393L256.719 150.822L256.864 153.902L256.978 156.265L257.006 156.862Z" fill="#FFB6B6"/>
<path d="M259.798 85.012L264.562 112.999L260.674 140.539L260.068 144.825L258.998 152.394L258.668 154.722L258.679 154.974L258.76 156.862H245.293L244.797 151.716L244.755 151.255L243.741 140.716L243.723 140.539L241.572 118.19L245.789 102.038L246.101 100.849V100.845L247.936 73.1885L246.515 60.6198L246.501 60.5027C246.529 60.5204 246.554 60.5382 246.582 60.5559C246.657 60.6021 246.731 60.6482 246.802 60.6979C255.081 65.9567 260.014 75.1828 259.798 85.012Z" fill="#CCCCCC"/>
<path d="M203.363 74.6302L198.184 69.2669C198.184 69.2669 187.098 74.2711 186.545 77.0474C185.993 79.8237 166.418 120.6 166.418 120.6L157.902 97.8267L146.817 105.237C146.817 105.237 155.712 140.594 164.03 142.254C172.349 143.914 200.228 100.405 200.228 100.405L203.363 74.6302Z" fill="#CCCCCC"/>
<path d="M413.645 140.293H10.3505C4.64215 140.293 0 144.945 0 150.661C0 156.376 4.64214 161.024 10.3505 161.024H413.645C419.353 161.024 424 156.377 424 150.661C424 144.945 419.353 140.293 413.645 140.293Z" fill="#E6E6E6"/>
<path d="M253.635 108.699L252.851 145.335C252.775 148.881 249.882 151.716 246.339 151.716H179.031C175.572 151.716 172.716 149.009 172.527 145.551L170.527 108.915C170.323 105.179 173.294 102.038 177.031 102.038H247.123C250.775 102.038 253.713 105.043 253.635 108.699Z" fill="#3F3D56"/>
<path d="M144.977 48.6492C153.87 48.6492 161.08 41.4303 161.08 32.5252C161.08 23.6202 153.87 16.4012 144.977 16.4012C136.083 16.4012 128.873 23.6202 128.873 32.5252C128.873 41.4303 136.083 48.6492 144.977 48.6492Z" fill="#FFB6B6"/>
<path d="M118.042 74.7144L119.814 93.8762L131.864 142.49L121.454 146.144L103.866 93.1665L101.437 71.8756L118.042 74.7144Z" fill="#FFB6B6"/>
<path d="M113.249 108.699L112.465 145.335C112.389 148.881 109.496 151.716 105.953 151.716H38.6449C35.1859 151.716 32.3302 149.009 32.1414 145.551L30.1411 108.915C29.9372 105.179 32.9078 102.038 36.6447 102.038H106.737C110.389 102.038 113.327 105.043 113.249 108.699Z" fill="#3F3D56"/>
<path d="M133.782 151.964C140.806 151.964 146.5 149.442 146.5 146.332C146.5 143.221 140.806 140.699 133.782 140.699C126.759 140.699 121.065 143.221 121.065 146.332C121.065 149.442 126.759 151.964 133.782 151.964Z" fill="#FFB6B6"/>
<path d="M93.057 77.644L100.322 38.8747C100.322 38.8747 120.523 36.036 121.232 42.7781C121.941 49.5202 120.725 82.4698 120.725 82.4698L93.057 77.644Z" fill="#325BE9"/>
<path d="M138.476 35.0605C138.476 35.0605 148.438 31.5007 152.64 29.5853C156.842 27.67 165.19 41.0294 165.376 33.9738C165.561 26.9183 162.677 23.9595 162.677 23.9595C162.677 23.9595 161.956 8.52442 146.426 10.4542C146.426 10.4542 149.842 2.73184 138.628 1.53773C127.415 0.343611 109.969 27.4567 111.532 31.5086C113.094 35.5605 114.967 38.9104 110.534 43.2427C106.102 47.5751 97.8015 72.026 104.117 78.6055C110.432 85.185 110.846 88.0402 106.519 92.1335C102.192 96.2268 91.9649 105.127 103.023 106.672C114.081 108.217 102.011 107.063 110.256 99.8027C118.5 92.542 130.53 92.8385 126.038 81.1893C121.546 69.5401 129.35 52.8468 128.373 50.3144C127.397 47.7819 130.561 31.7008 130.561 31.7008C130.561 31.7008 137.925 30.6175 138.476 35.0605Z" fill="#2F2E41"/>
<path d="M220.7 54.529C230.382 54.529 238.23 46.6706 238.23 36.9768C238.23 27.2831 230.382 19.4247 220.7 19.4247C211.018 19.4247 203.17 27.2831 203.17 36.9768C203.17 46.6706 211.018 54.529 220.7 54.529Z" fill="#A0616A"/>
<path d="M222.099 13.3792C221.592 13.6757 220.912 13.2271 220.75 12.662C220.587 12.0969 220.777 11.4969 220.964 10.9397L221.91 8.13477C222.581 6.14542 223.293 4.08656 224.746 2.5724C226.939 0.28703 230.423 -0.294358 233.561 0.126837C237.589 0.667736 241.564 2.85193 243.437 6.46377C245.31 10.0756 244.513 15.1154 241.128 17.3689C245.952 22.9049 247.634 29.0746 247.368 36.4167C247.103 43.7587 239.112 50.5159 233.9 55.6881C232.737 54.9817 231.679 51.6715 232.319 50.469C232.959 49.2664 232.042 47.8733 232.834 46.7656C233.627 45.658 234.29 47.4217 233.489 46.3203C232.983 45.6253 234.956 44.0265 234.205 43.6105C230.57 41.5986 229.361 37.0618 227.078 33.5876C224.324 29.3971 219.61 26.5592 214.623 26.0884C211.875 25.8291 208.973 26.2988 206.721 27.896C204.469 29.4931 203.01 32.3473 203.533 35.0606C202.18 33.6856 201.507 31.6704 201.761 29.7573C202.015 27.8442 203.19 26.0751 204.855 25.1014C203.843 21.7507 204.71 17.8965 207.058 15.3036C209.407 12.7107 218.935 13.1523 222.364 13.8347L222.099 13.3792Z" fill="#2F2E41"/>
<path d="M222.632 26.1902C227.173 26.6811 230.453 30.6202 233.222 34.2579C234.818 36.3546 236.489 38.6701 236.449 41.306C236.409 43.971 234.629 46.2569 233.779 48.7825C232.389 52.9107 233.743 57.8224 237.053 60.651C233.783 61.2723 230.248 58.8174 229.683 55.5333C229.026 51.7101 231.921 48.0202 231.578 44.1561C231.276 40.7518 228.597 38.1317 226.319 35.5863C224.041 33.0409 221.902 29.6632 222.949 26.4105L222.632 26.1902Z" fill="#2F2E41"/>
<path d="M290.529 142.511C286.031 145.073 283.704 149.474 285.333 152.34C286.962 155.206 291.929 155.453 296.428 152.889C298.24 151.89 299.786 150.471 300.938 148.75L319.861 137.654L314.472 128.874L296.388 140.745C294.322 140.856 292.313 141.462 290.529 142.511Z" fill="#FFB6B6"/>
<path d="M354.602 61.1429C354.036 60.9185 349.074 59.0371 344.544 61.5211C339.34 64.3747 338.537 70.8886 338.255 73.1734C337.604 78.4511 339.522 79.634 339.927 84.9771C340.685 94.9733 342.683 83.5695 339.492 88.1324C338.388 89.7118 327.108 114.187 320.887 118.981C308.789 128.305 301.106 134.871 301.106 134.871L309.877 144.411C309.877 144.411 323.736 140.713 335.986 132.749C348.551 124.58 354.834 120.495 359.695 112.505C360.113 111.816 370.129 94.7868 364.75 75.956C363.523 71.6608 361.275 63.7909 354.602 61.1429Z" fill="#325BE9"/>
<path d="M399.891 108.699L399.107 145.335C399.031 148.881 396.138 151.716 392.595 151.716H325.287C321.828 151.716 318.972 149.009 318.783 145.551L316.783 108.915C316.579 105.179 319.55 102.038 323.286 102.038H393.379C397.031 102.038 399.969 105.043 399.891 108.699Z" fill="#3F3D56"/>
</g>
<defs>
<clipPath id="clip0_8_542">
<rect width="424" height="217" fill="white"/>
</clipPath>
</defs>
</svg>
