<svg width="30" height="34" viewBox="0 0 30 34" fill="none" xmlns="http://www.w3.org/2000/svg">
<path d="M13.3333 29.0417V17.625L3.33327 11.8333V23.25L13.3333 29.0417ZM16.6666 29.0417L26.6666 23.25V11.8333L16.6666 17.625V29.0417ZM14.9999 14.75L24.8749 9.04167L14.9999 3.33333L5.12494 9.04167L14.9999 14.75ZM1.66661 26.1667C1.13883 25.8611 0.729106 25.4583 0.437439 24.9583C0.145772 24.4583 -6.10352e-05 23.9028 -6.10352e-05 23.2917V10.0417C-6.10352e-05 9.43056 0.145772 8.875 0.437439 8.375C0.729106 7.875 1.13883 7.47222 1.66661 7.16667L13.3333 0.458333C13.861 0.152778 14.4166 0 14.9999 0C15.5833 0 16.1388 0.152778 16.6666 0.458333L28.3333 7.16667C28.861 7.47222 29.2708 7.875 29.5624 8.375C29.8541 8.875 29.9999 9.43056 29.9999 10.0417V23.2917C29.9999 23.9028 29.8541 24.4583 29.5624 24.9583C29.2708 25.4583 28.861 25.8611 28.3333 26.1667L16.6666 32.875C16.1388 33.1806 15.5833 33.3333 14.9999 33.3333C14.4166 33.3333 13.861 33.1806 13.3333 32.875L1.66661 26.1667Z" fill="#8F3DCD"/>
</svg>
