<svg width="34" height="30" viewBox="0 0 34 30" fill="none" xmlns="http://www.w3.org/2000/svg">
<path d="M28.3333 30C27.25 30 26.2778 29.6875 25.4167 29.0625C24.5556 28.4375 23.9583 27.6389 23.625 26.6667H15C13.1667 26.6667 11.5972 26.0139 10.2917 24.7083C8.98611 23.4028 8.33333 21.8333 8.33333 20C8.33333 18.1667 8.98611 16.5972 10.2917 15.2917C11.5972 13.9861 13.1667 13.3333 15 13.3333H18.3333C19.25 13.3333 20.0347 13.0069 20.6875 12.3542C21.3403 11.7014 21.6667 10.9167 21.6667 10C21.6667 9.08333 21.3403 8.29861 20.6875 7.64583C20.0347 6.99306 19.25 6.66667 18.3333 6.66667H9.70833C9.34722 7.63889 8.74306 8.4375 7.89583 9.0625C7.04861 9.6875 6.08333 10 5 10C3.61111 10 2.43056 9.51389 1.45833 8.54167C0.486111 7.56944 0 6.38889 0 5C0 3.61111 0.486111 2.43056 1.45833 1.45833C2.43056 0.486111 3.61111 0 5 0C6.08333 0 7.04861 0.3125 7.89583 0.9375C8.74306 1.5625 9.34722 2.36111 9.70833 3.33333H18.3333C20.1667 3.33333 21.7361 3.98611 23.0417 5.29167C24.3472 6.59722 25 8.16667 25 10C25 11.8333 24.3472 13.4028 23.0417 14.7083C21.7361 16.0139 20.1667 16.6667 18.3333 16.6667H15C14.0833 16.6667 13.2986 16.9931 12.6458 17.6458C11.9931 18.2986 11.6667 19.0833 11.6667 20C11.6667 20.9167 11.9931 21.7014 12.6458 22.3542C13.2986 23.0069 14.0833 23.3333 15 23.3333H23.625C23.9861 22.3611 24.5903 21.5625 25.4375 20.9375C26.2847 20.3125 27.25 20 28.3333 20C29.7222 20 30.9028 20.4861 31.875 21.4583C32.8472 22.4306 33.3333 23.6111 33.3333 25C33.3333 26.3889 32.8472 27.5694 31.875 28.5417C30.9028 29.5139 29.7222 30 28.3333 30ZM5 6.66667C5.47222 6.66667 5.86806 6.50694 6.1875 6.1875C6.50694 5.86806 6.66667 5.47222 6.66667 5C6.66667 4.52778 6.50694 4.13194 6.1875 3.8125C5.86806 3.49306 5.47222 3.33333 5 3.33333C4.52778 3.33333 4.13194 3.49306 3.8125 3.8125C3.49306 4.13194 3.33333 4.52778 3.33333 5C3.33333 5.47222 3.49306 5.86806 3.8125 6.1875C4.13194 6.50694 4.52778 6.66667 5 6.66667Z" fill="#DE5626"/>
</svg>
