<svg width="27" height="30" viewBox="0 0 27 30" fill="none" xmlns="http://www.w3.org/2000/svg">
<path d="M13.3333 26.6667C15.1667 26.6667 16.7361 26.0139 18.0417 24.7083C19.3472 23.4028 20 21.8333 20 20V13.3333C20 11.5 19.3472 9.93056 18.0417 8.625C16.7361 7.31944 15.1667 6.66667 13.3333 6.66667C11.5 6.66667 9.93056 7.31944 8.625 8.625C7.31944 9.93056 6.66667 11.5 6.66667 13.3333V20C6.66667 21.8333 7.31944 23.4028 8.625 24.7083C9.93056 26.0139 11.5 26.6667 13.3333 26.6667ZM10 21.6667H16.6667V18.3333H10V21.6667ZM10 15H16.6667V11.6667H10V15ZM13.3333 30C11.5278 30 9.85417 29.5556 8.3125 28.6667C6.77083 27.7778 5.55556 26.5556 4.66667 25H0V21.6667H3.5C3.41667 21.1111 3.36806 20.5556 3.35417 20C3.34028 19.4444 3.33333 18.8889 3.33333 18.3333H0V15H3.33333C3.33333 14.4444 3.34028 13.8889 3.35417 13.3333C3.36806 12.7778 3.41667 12.2222 3.5 11.6667H0V8.33333H4.66667C5.05556 7.69444 5.49306 7.09722 5.97917 6.54167C6.46528 5.98611 7.02778 5.5 7.66667 5.08333L5 2.33333L7.33333 0L10.9167 3.58333C11.6944 3.33333 12.4861 3.20833 13.2917 3.20833C14.0972 3.20833 14.8889 3.33333 15.6667 3.58333L19.3333 0L21.6667 2.33333L18.9167 5.08333C19.5556 5.5 20.1319 5.97917 20.6458 6.52083C21.1597 7.0625 21.6111 7.66667 22 8.33333H26.6667V11.6667H23.1667C23.25 12.2222 23.2986 12.7778 23.3125 13.3333C23.3264 13.8889 23.3333 14.4444 23.3333 15H26.6667V18.3333H23.3333C23.3333 18.8889 23.3264 19.4444 23.3125 20C23.2986 20.5556 23.25 21.1111 23.1667 21.6667H26.6667V25H22C21.1111 26.5556 19.8958 27.7778 18.3542 28.6667C16.8125 29.5556 15.1389 30 13.3333 30Z" fill="#315AE8"/>
</svg>
