<svg width="40" height="22" viewBox="0 0 40 22" fill="none" xmlns="http://www.w3.org/2000/svg">
<path d="M16.8851 16.8113V7.9537C16.8851 5.69409 15.621 4.15784 12.4606 4.15784C10.6549 4.15784 9.11957 4.60995 7.76217 5.15187L8.21686 6.77883C9.2099 6.41776 10.4742 6.05577 11.8286 6.05577C13.5443 6.05577 14.3567 6.77883 14.3567 8.22526V9.40013H13.4534C9.11927 9.40013 7.13318 11.0271 7.13318 13.6481C7.13318 15.8176 8.48755 17.0829 10.9223 17.0829C12.4573 17.0829 13.6313 16.3598 14.7144 15.4559L14.895 16.8116H16.8814L16.8851 16.8113ZM14.357 13.919C13.4537 14.7322 12.4609 15.1843 11.5579 15.1843C10.3842 15.1843 9.66186 14.4613 9.66186 13.196C9.66186 11.9307 10.3842 11.0265 13.2736 11.0265H14.3573V13.9187L14.357 13.919ZM25.3726 16.8113H22.2122L18.4231 4.4285H21.1319L23.4796 12.0202L24.0213 14.2798C25.1953 11.0262 26.0977 7.68183 26.4593 4.42819H29.1681C28.4457 8.49531 27.1817 12.9241 25.379 16.811L25.3726 16.8113ZM40 16.8113V7.9537C40 5.69409 38.736 4.15784 35.5753 4.15784C33.7695 4.15784 32.2348 4.60995 30.8798 5.15187L31.2412 6.77883C32.3245 6.41776 33.5886 6.05577 34.9432 6.05577C36.6589 6.05577 37.4713 6.77883 37.4713 8.22526V9.40013H36.568C32.2339 9.40013 30.2478 11.0271 30.2478 13.6481C30.2478 15.8176 31.5118 17.0829 33.9499 17.0829C35.5753 17.0829 36.749 16.3598 37.833 15.4559L38.0136 16.8116L40 16.8113ZM37.4719 13.919C36.5686 14.7322 35.5756 15.1843 34.6729 15.1843C33.4991 15.1843 32.7768 14.4613 32.7768 13.196C32.7768 11.9307 33.4991 11.0265 36.3882 11.0265H37.4719V13.919ZM4.33471 18.8901C3.61206 19.9745 2.52808 20.7877 1.17401 21.2398L0 19.7937C0.903318 19.2515 1.80603 18.438 2.16736 17.7152C2.52868 17.0826 2.61902 16.1787 2.61902 14.0999V0H5.32806V13.9187C5.32806 16.7206 5.05706 17.8053 4.33471 18.8901Z" fill="#FFF2E2"/>
</svg>
