<svg width="40" height="44" viewBox="0 0 40 44" fill="none" xmlns="http://www.w3.org/2000/svg">
<g clip-path="url(#clip0_4_129)">
<path d="M18.1998 0.552173C19.2873 -0.0622267 20.7039 -0.0650019 21.7905 0.552173C27.2573 3.60089 32.7258 6.64483 38.1916 9.69541C39.2197 10.2669 39.9074 11.3961 39.8969 12.5653V30.9076C39.9046 32.1251 39.1489 33.2813 38.0643 33.8399C32.6155 36.8718 27.1695 39.9074 21.7217 42.9393C20.6116 43.5657 19.1666 43.5175 18.0912 42.8397C16.4577 41.9051 14.8213 40.9751 13.1876 40.0414C12.8538 39.845 12.4774 39.6886 12.2417 39.3692C12.4501 39.0919 12.8227 39.0574 13.1254 38.9364C13.8073 38.7224 14.4336 38.3789 15.06 38.0455C15.2184 37.9385 15.4118 37.9796 15.5636 38.0753C16.9605 38.8658 18.3451 39.6792 19.7466 40.4621C20.0456 40.6325 20.3484 40.4063 20.6039 40.2657C25.9509 37.2831 31.3044 34.3118 36.6504 31.3283C36.8485 31.2343 36.958 31.0267 36.9419 30.8126C36.9457 24.7619 36.9429 18.7101 36.9438 12.6593C36.9664 12.4163 36.824 12.1929 36.6014 12.0935C31.1715 9.07545 25.7444 6.05279 20.3154 3.03398C20.2213 2.97016 20.1099 2.93591 19.9958 2.93575C19.8816 2.93558 19.7701 2.96951 19.6759 3.03306C14.2469 6.05279 8.82073 9.07823 3.39176 12.0961C3.16993 12.1957 3.02106 12.4154 3.04746 12.6593C3.0484 18.7101 3.04746 24.7619 3.04746 30.8135C3.03805 30.918 3.0613 31.0228 3.11409 31.1139C3.16688 31.2049 3.24666 31.2778 3.34271 31.3228C4.79145 32.1336 6.24207 32.9387 7.69176 33.7467C8.50845 34.1806 9.5112 34.4384 10.411 34.106C11.2051 33.8249 11.7616 33.0252 11.7465 32.1931C11.754 26.1777 11.7427 20.1613 11.7521 14.1468C11.7323 13.8798 11.9889 13.6592 12.252 13.6843C12.9481 13.6797 13.6451 13.6751 14.3412 13.6862C14.6318 13.6797 14.8318 13.9672 14.7958 14.2363C14.793 20.2898 14.8033 26.3434 14.7911 32.3969C14.793 34.0102 14.1214 35.7657 12.6094 36.5551C10.7467 37.5075 8.44441 37.3055 6.60418 36.3923C5.01109 35.6075 3.4908 34.6814 1.92599 33.8406C0.83857 33.2851 0.0867029 32.1243 0.0943575 30.9077V12.5653C0.0829537 11.3719 0.797954 10.2222 1.85803 9.65902C7.3059 6.62464 12.7528 3.58794 18.1998 0.552173Z" fill="#FFF2E2"/>
<path d="M22.9525 13.258C25.3285 13.1071 27.8722 13.1686 30.0103 14.3239C31.6657 15.2092 32.5835 17.0672 32.6127 18.8823C32.5665 19.1271 32.3072 19.2622 32.0703 19.2454C31.3809 19.2445 30.6914 19.2546 30.002 19.2408C29.7096 19.2519 29.5396 18.9858 29.5029 18.7306C29.3048 17.8621 28.8249 17.0019 27.9967 16.583C26.7252 15.9548 25.251 15.9864 23.8646 15.9995C22.8525 16.0525 21.7641 16.139 20.9067 16.7264C20.2484 17.1714 20.0484 18.0696 20.2834 18.793C20.5049 19.3125 21.1124 19.48 21.6095 19.6345C24.4729 20.3737 27.5073 20.3001 30.316 21.2728C31.4789 21.6694 32.6165 22.4403 33.0145 23.6419C33.5352 25.2525 33.3069 27.1775 32.1459 28.4705C31.2044 29.5345 29.8332 30.1136 28.4655 30.4281C26.646 30.8285 24.7579 30.8387 22.9101 30.6609C21.1727 30.4654 19.3647 30.0149 18.0234 28.8465C16.8765 27.8636 16.3163 26.3322 16.3719 24.8541C16.3852 24.6045 16.637 24.4304 16.8793 24.4509C17.5735 24.4454 18.2677 24.4435 18.9619 24.4518C19.2392 24.4323 19.4448 24.6688 19.459 24.9267C19.5871 25.7542 19.9022 26.6227 20.6333 27.1133C22.0442 28.0117 23.8146 27.9501 25.4302 27.9753C26.7687 27.9167 28.2712 27.8989 29.3634 27.0258C29.9397 26.5278 30.1104 25.6947 29.9547 24.9779C29.786 24.3727 29.1446 24.0907 28.5937 23.9063C25.767 23.0238 22.6988 23.3441 19.8994 22.3461C18.7629 21.9497 17.6639 21.2002 17.2273 20.0479C16.6181 18.417 16.8972 16.3997 18.1799 15.1504C19.4306 13.9077 21.236 13.4293 22.9525 13.258Z" fill="#FFF2E2"/>
</g>
<defs>
<clipPath id="clip0_4_129">
<rect width="40" height="43.4783" fill="white"/>
</clipPath>
</defs>
</svg>
