<svg width="28" height="16" viewBox="0 0 28 16" fill="none" xmlns="http://www.w3.org/2000/svg">
<path d="M7.902 0.975999C9.318 0.975999 10.554 1.228 11.61 1.732C12.666 2.224 13.482 2.926 14.058 3.838C14.634 4.75 14.922 5.812 14.922 7.024V7.186C14.922 8.674 14.496 9.928 13.644 10.948C12.792 11.956 11.616 12.634 10.116 12.982L11.088 15.16V15.574H8.352L7.308 13.198C6.012 13.138 4.878 12.85 3.906 12.334C2.934 11.818 2.184 11.122 1.656 10.246C1.128 9.358 0.864 8.338 0.864 7.186V7.024C0.864 5.812 1.152 4.75 1.728 3.838C2.316 2.926 3.138 2.224 4.194 1.732C5.262 1.228 6.498 0.975999 7.902 0.975999ZM12.168 7.006C12.168 5.878 11.796 5.008 11.052 4.396C10.32 3.784 9.27 3.478 7.902 3.478C6.522 3.478 5.46 3.784 4.716 4.396C3.984 5.008 3.618 5.878 3.618 7.006V7.222C3.618 8.35 3.984 9.214 4.716 9.814C5.46 10.414 6.522 10.714 7.902 10.714C9.294 10.714 10.35 10.414 11.07 9.814C11.802 9.214 12.168 8.35 12.168 7.222V7.006ZM15.5098 3.622V1.192H27.4438V3.622H22.8358V13H20.1178V3.622H15.5098Z" fill="white"/>
</svg>
