<svg width="35" height="19" viewBox="0 0 35 19" fill="none" xmlns="http://www.w3.org/2000/svg">
<path d="M0.32 15V0.4H2.98L4.46 5.08C4.60667 5.53333 4.72667 5.96 4.82 6.36C4.91333 6.74667 4.98 7.04667 5.02 7.26C5.06 7.04667 5.12667 6.74 5.22 6.34C5.31333 5.94 5.43333 5.51333 5.58 5.06L7.02 0.4H9.68V15H7.64V8.48C7.64 7.22667 7.68667 6.02667 7.78 4.88C7.88667 3.72 8.00667 2.61333 8.14 1.56L5.96 8.66H4.02L1.82 1.64C1.95333 2.61333 2.08 3.65333 2.2 4.76C2.32 5.86667 2.38 7.10667 2.38 8.48V15H0.32ZM19.2922 18.6L17.2322 15.2C17.1389 15.2 17.0589 15.2 16.9922 15.2C16.0722 15.2 15.2722 15.02 14.5922 14.66C13.9255 14.3 13.4055 13.8 13.0322 13.16C12.6589 12.5067 12.4722 11.74 12.4722 10.86V4.52C12.4722 3.21333 12.8789 2.16667 13.6922 1.38C14.5189 0.593333 15.6189 0.2 16.9922 0.2C17.9122 0.2 18.7055 0.379999 19.3722 0.739999C20.0522 1.1 20.5789 1.60667 20.9522 2.26C21.3255 2.9 21.5122 3.65333 21.5122 4.52V10.86C21.5122 11.7533 21.3189 12.5333 20.9322 13.2C20.5455 13.8667 20.0055 14.3667 19.3122 14.7L21.6922 18.6H19.2922ZM16.9922 13.3C17.7255 13.3 18.2989 13.08 18.7122 12.64C19.1389 12.2 19.3522 11.6067 19.3522 10.86V4.52C19.3522 3.77333 19.1389 3.18667 18.7122 2.76C18.2989 2.32 17.7255 2.1 16.9922 2.1C16.2589 2.1 15.6789 2.32 15.2522 2.76C14.8389 3.18667 14.6322 3.77333 14.6322 4.52V10.86C14.6322 11.6067 14.8389 12.2 15.2522 12.64C15.6789 13.08 16.2589 13.3 16.9922 13.3ZM23.8444 15L27.5644 0.4H30.4044L34.1444 15H31.9444L31.0644 11.3H26.9244L26.0444 15H23.8444ZM27.3244 9.5H30.6444L29.6444 5.3C29.471 4.55333 29.3244 3.90667 29.2044 3.36C29.0977 2.81333 29.0244 2.43333 28.9844 2.22C28.9444 2.43333 28.871 2.81333 28.7644 3.36C28.6577 3.90667 28.511 4.54667 28.3244 5.28L27.3244 9.5Z" fill="white"/>
</svg>
