<svg width="40" height="25" viewBox="0 0 40 25" fill="none" xmlns="http://www.w3.org/2000/svg">
<path d="M1.92663 12.8511C1.82423 12.7425 1.69943 12.6563 1.56183 12.5957C1.42423 12.535 1.27703 12.5063 1.12663 12.5063C0.976235 12.5031 0.829035 12.535 0.691436 12.5925C0.553837 12.6531 0.429038 12.7393 0.326638 12.8479C0.221039 12.9533 0.13784 13.0778 0.0834399 13.2151C0.0290402 13.3556 0.0002404 13.5024 0.0002404 13.6493C-0.00295958 13.7994 0.0258402 13.9462 0.0834399 14.0835C0.14104 14.2208 0.224239 14.3453 0.329838 14.4507C0.432268 14.5593 0.556393 14.6452 0.694193 14.703C0.831994 14.7607 0.980404 14.789 1.12983 14.7859C1.27894 14.7868 1.42668 14.7575 1.56416 14.6999C1.70164 14.6423 1.82602 14.5575 1.92983 14.4507C2.03863 14.3485 2.12183 14.224 2.17943 14.0867C2.23703 13.9494 2.26583 13.8026 2.26583 13.6525C2.26583 13.5024 2.23703 13.3556 2.17943 13.2183C2.11863 13.0778 2.03543 12.9533 1.92663 12.8511ZM15.3185 10.2585C15.3025 10.9737 15.3377 11.6921 15.4209 12.4041H15.3825C15.2929 12.2285 15.0946 11.9028 14.7906 11.4271L7.4946 0H5.28021V14.588H6.9826V4.04211C7.0018 3.37481 6.973 2.70751 6.9026 2.04021H6.9666C7.0882 2.35949 7.245 2.666 7.4306 2.95336L14.925 14.588H17.0209V0H15.3185V10.2585ZM28.5633 12.9852H22.5473V7.93096H27.8113V6.39202H22.5473V1.54532H28.1953V0H20.8033V14.588H28.5537L28.5633 12.9852ZM29.8657 0V1.54532H34.0576V14.588H35.76V1.54532H40V0H29.8657ZM13.181 18.215C12.7558 18.3843 12.3717 18.6423 12.0546 18.9717C11.7282 19.3197 11.4722 19.7284 11.3058 20.1786C11.1394 20.6288 11.0658 21.1045 11.085 21.5803C11.053 22.4615 11.3602 23.3235 11.949 23.9813C12.2434 24.291 12.6018 24.5304 12.9986 24.6901C13.3954 24.8497 13.821 24.92 14.2466 24.9008C14.8866 24.9231 15.5233 24.789 16.1025 24.5081L16.1089 23.7642C15.5777 24.0739 14.973 24.2271 14.3586 24.2111C14.029 24.2239 13.6994 24.1664 13.3954 24.0419C13.0914 23.9174 12.8162 23.7258 12.5922 23.4832C12.1237 22.9403 11.8831 22.2382 11.9202 21.5228C11.8818 20.7661 12.141 20.0254 12.6402 19.457C12.877 19.1952 13.1682 18.9909 13.4914 18.8504C13.8158 18.7127 14.1661 18.6463 14.5186 18.6556C15.0786 18.6461 15.6289 18.7834 16.1185 19.0547V18.2533C15.6108 18.0491 15.0657 17.9533 14.5186 17.9724C14.061 17.966 13.6034 18.0458 13.181 18.215ZM21.1585 20.5011C20.9446 20.2767 20.6846 20.1011 20.3962 19.9864C20.1079 19.8718 19.7981 19.8208 19.4881 19.837C19.1585 19.821 18.8321 19.8753 18.5249 19.9934C18.2177 20.1116 17.9393 20.2904 17.7025 20.5171C17.4721 20.7725 17.2961 21.0694 17.1809 21.3951C17.0657 21.7207 17.0177 22.0624 17.0401 22.4072C17.0081 23.0617 17.2353 23.7035 17.6705 24.192C17.8881 24.4251 18.1505 24.6102 18.4449 24.7348C18.7393 24.8561 19.0561 24.9168 19.3729 24.904C19.6961 24.9136 20.0193 24.8529 20.3201 24.7284C20.6209 24.6039 20.8897 24.4155 21.1105 24.176C21.5593 23.6713 21.7914 23.0108 21.7569 22.337C21.7953 21.6665 21.5809 21.0119 21.1585 20.5011ZM20.5729 23.7801C20.4321 23.9423 20.2559 24.0701 20.0579 24.1537C19.8598 24.2372 19.6452 24.2744 19.4305 24.2622C19.2097 24.2718 18.9921 24.2303 18.7905 24.1473C18.5889 24.0611 18.4097 23.9334 18.2625 23.7673C17.9559 23.3886 17.8018 22.9093 17.8305 22.4232C17.8017 21.9219 17.9553 21.427 18.2625 21.0311C18.4065 20.8651 18.5857 20.7342 18.7873 20.6448C18.9889 20.5586 19.2097 20.5171 19.4273 20.5266C19.6449 20.5139 19.8593 20.5554 20.0577 20.6416C20.2561 20.7278 20.4321 20.8587 20.5729 21.0247C20.8637 21.4261 21.0052 21.9161 20.9729 22.4104C21.0049 22.8957 20.8641 23.3842 20.5729 23.7801ZM24.2817 20.1882C24.0417 20.4021 23.8657 20.6799 23.7793 20.9896V19.987H22.9793V24.789H23.7793V22.3402C23.7537 21.8964 23.8689 21.4525 24.1057 21.0758C24.1921 20.9385 24.3073 20.8236 24.4481 20.7437C24.5889 20.6639 24.7457 20.616 24.9057 20.6128C25.1105 20.5969 25.3153 20.6512 25.4881 20.7661V19.9743C25.3409 19.9264 25.1873 19.904 25.0337 19.9104C24.7585 19.9072 24.4929 20.0062 24.2817 20.1882ZM30.1697 22.1709C30.2081 21.5611 30.0257 20.9609 29.6577 20.4755C29.4753 20.2712 29.2513 20.1084 28.9985 20.003C28.7457 19.8976 28.4737 19.8498 28.2017 19.8657C27.9009 19.8561 27.6001 19.9168 27.3217 20.0381C27.0465 20.1595 26.8001 20.3414 26.6017 20.5713C26.1672 21.0771 25.9418 21.7289 25.9713 22.3944C25.9297 23.0585 26.1377 23.7163 26.5537 24.2335C26.7553 24.4538 27.0049 24.6262 27.2801 24.7412C27.5553 24.8561 27.8561 24.904 28.1537 24.8912C28.7457 24.92 29.3313 24.7603 29.8241 24.4346V23.7131C29.403 24.0544 28.8785 24.2435 28.3361 24.2495C28.1281 24.2622 27.9169 24.2303 27.7217 24.1537C27.5265 24.077 27.3473 23.9653 27.2001 23.8152C26.9142 23.47 26.7691 23.03 26.7937 22.5828H30.1761L30.1697 22.1709ZM26.7873 21.9474C26.8289 21.5675 26.9953 21.2099 27.2577 20.9321C27.3753 20.806 27.518 20.706 27.6768 20.6383C27.8355 20.5707 28.0067 20.537 28.1793 20.5394C28.3457 20.5298 28.5089 20.5586 28.6625 20.6224C28.8161 20.6863 28.9505 20.7821 29.0593 20.9066C29.2833 21.2035 29.3953 21.5675 29.3793 21.9379L26.7873 21.9474Z" fill="#FFF2E2"/>
</svg>
