<svg width="40" height="20" viewBox="0 0 40 20" fill="none" xmlns="http://www.w3.org/2000/svg">
<path d="M3.16531 4.12119H9.09749C10.8386 4.13544 12.1003 4.62479 12.8826 5.58842C13.6648 6.55205 13.9229 7.86825 13.6573 9.537C13.5541 10.2995 13.3253 11.0474 12.9711 11.781C12.6269 12.5213 12.1468 13.194 11.5545 13.7661C10.8165 14.5139 10.0272 14.9886 9.18603 15.1901C8.3449 15.3917 7.47411 15.4922 6.5741 15.4922H3.9179L3.07677 19.5918H0L3.16531 4.12119ZM5.7551 6.58096L4.427 13.054C4.51554 13.0683 4.60408 13.0756 4.69262 13.0756H5.00251C6.41915 13.0899 7.59982 12.9535 8.54411 12.6656C9.4884 12.3636 10.1232 11.3136 10.4477 9.51542C10.7133 8.00503 10.4477 7.13463 9.65086 6.90461C8.86862 6.67459 7.88758 6.56671 6.70691 6.58096C6.52983 6.59521 6.36026 6.60254 6.1978 6.60254H5.73297L5.7551 6.58096ZM17.1621 0H20.2168L19.3535 4.12119H22.0983C23.6034 4.1501 24.7248 4.45217 25.4628 5.02742C26.2154 5.60267 26.4367 6.69617 26.1268 8.30711L24.6438 15.4922H21.5449L22.9615 8.63076C23.1089 7.9114 23.0647 7.40088 22.8287 7.0988C22.5927 6.79673 22.0836 6.64569 21.3014 6.64569L18.8444 6.62411L17.0293 15.4922H13.9747L17.1621 0ZM29.407 4.12119H35.3392C37.0803 4.13544 38.342 4.62479 39.1242 5.58842C39.9065 6.55205 40.1646 7.86825 39.899 9.537C39.7958 10.2995 39.5669 11.0474 39.2128 11.781C38.8686 12.5213 38.3885 13.194 37.7961 13.7661C37.0582 14.5139 36.2688 14.9886 35.4277 15.1901C34.5866 15.3917 33.7158 15.4922 32.8158 15.4922H30.1596L29.3184 19.5918H26.2417L29.407 4.12119ZM31.9968 6.58096L30.6687 13.054C30.7572 13.0683 30.8458 13.0756 30.9343 13.0756H31.2442C32.6608 13.0899 33.8415 12.9535 34.7858 12.6656C35.7301 12.3636 36.3649 11.3136 36.6894 9.51542C36.955 8.00503 36.6894 7.13463 35.8925 6.90461C35.1103 6.67459 34.1292 6.56671 32.9486 6.58096C32.7715 6.59521 32.6019 6.60254 32.4395 6.60254H31.9746L31.9968 6.58096Z" fill="#FFF2E2"/>
</svg>
