<svg width="40" height="40" viewBox="0 0 40 40" fill="none" xmlns="http://www.w3.org/2000/svg">
<g clip-path="url(#clip0_4_142)">
<path d="M19.8287 0.0112305C9.6997 0.0112305 10.3321 4.42143 10.3321 4.42143L10.3434 8.99053H20.0094V10.3623H6.50422C6.50422 10.3623 0.022644 9.62425 0.022644 19.8854C0.022644 30.1469 5.67992 29.783 5.67992 29.783H9.05617V25.0213C9.05617 25.0213 8.87415 19.3413 14.6231 19.3413H24.2101C24.2101 19.3413 29.5963 19.4286 29.5963 14.1148V5.32856C29.5963 5.32856 30.4143 0.0112305 19.8287 0.0112305ZM14.4989 3.08386C14.7274 3.08365 14.9536 3.12867 15.1646 3.21634C15.3757 3.304 15.5675 3.43259 15.729 3.59475C15.8905 3.75692 16.0186 3.94946 16.1059 4.16138C16.1932 4.37329 16.238 4.60041 16.2378 4.82974C16.238 5.05907 16.1932 5.28619 16.1059 5.49811C16.0186 5.71002 15.8905 5.90257 15.729 6.06473C15.5675 6.22689 15.3757 6.35548 15.1646 6.44315C14.9536 6.53081 14.7274 6.57583 14.4989 6.57562C14.2705 6.57583 14.0443 6.53081 13.8332 6.44315C13.6222 6.35548 13.4304 6.22689 13.2689 6.06473C13.1074 5.90257 12.9793 5.71002 12.892 5.49811C12.8047 5.28619 12.7598 5.05907 12.76 4.82974C12.7598 4.60041 12.8047 4.37329 12.892 4.16138C12.9793 3.94946 13.1074 3.75692 13.2689 3.59475C13.4304 3.43259 13.6222 3.304 13.8332 3.21634C14.0443 3.12867 14.2705 3.08365 14.4989 3.08386Z" fill="url(#paint0_linear_4_142)"/>
<path d="M20.1164 39.8627C30.2454 39.8627 29.613 35.4525 29.613 35.4525L29.6017 30.8836H19.9356V29.5118H33.4407C33.4407 29.5118 39.9223 30.2499 39.9223 19.9884C39.9223 9.72703 34.265 10.091 34.265 10.091H30.8888V14.8525C30.8888 14.8525 31.0708 20.5325 25.3218 20.5325H15.7349C15.7349 20.5325 10.3487 20.4451 10.3487 25.7592V34.5455C10.3487 34.5455 9.53081 39.8627 20.1162 39.8627H20.1164ZM25.4462 36.7904C25.2178 36.7906 24.9916 36.7456 24.7805 36.6579C24.5694 36.5703 24.3777 36.4417 24.2161 36.2795C24.0546 36.1173 23.9265 35.9248 23.8392 35.7129C23.7519 35.501 23.7071 35.2739 23.7073 35.0445C23.7071 34.8152 23.7519 34.588 23.8392 34.3761C23.9265 34.1642 24.0546 33.9716 24.2161 33.8094C24.3776 33.6473 24.5694 33.5187 24.7805 33.431C24.9915 33.3433 25.2178 33.2983 25.4462 33.2985C25.6746 33.2983 25.9008 33.3433 26.1119 33.431C26.3229 33.5186 26.5147 33.6472 26.6762 33.8094C26.8377 33.9715 26.9658 34.1641 27.0531 34.376C27.1404 34.5879 27.1853 34.815 27.1851 35.0444C27.1853 35.2737 27.1404 35.5008 27.0531 35.7127C26.9658 35.9246 26.8377 36.1172 26.6762 36.2793C26.5147 36.4415 26.3229 36.5701 26.1119 36.6578C25.9008 36.7454 25.6746 36.7906 25.4462 36.7904Z" fill="url(#paint1_linear_4_142)"/>
</g>
<defs>
<linearGradient id="paint0_linear_4_142" x1="383.457" y1="358.453" x2="2368.61" y2="2315.94" gradientUnits="userSpaceOnUse">
<stop stop-color="#FFF2E2"/>
<stop offset="1" stop-color="#366994"/>
</linearGradient>
<linearGradient id="paint1_linear_4_142" x1="576.299" y1="622.795" x2="2707.73" y2="2629.65" gradientUnits="userSpaceOnUse">
<stop stop-color="#FFF2E2"/>
<stop offset="1" stop-color="#FFC331"/>
</linearGradient>
<clipPath id="clip0_4_142">
<rect width="40" height="40" fill="white"/>
</clipPath>
</defs>
</svg>
