<svg width="40" height="36" viewBox="0 0 40 36" fill="none" xmlns="http://www.w3.org/2000/svg">
<path d="M40 17.7424C40 15.1034 36.6816 12.6024 31.594 11.0514C32.768 5.88706 32.2462 1.7783 29.947 0.462844C29.417 0.154281 28.7974 0.00811996 28.1207 0.00811996V1.8189C28.4957 1.8189 28.7974 1.89198 29.0501 2.03002C30.159 2.66339 30.64 5.07505 30.265 8.17692C30.1753 8.94021 30.0285 9.7441 29.8492 10.5642C28.2511 10.1745 26.5063 9.87402 24.6718 9.67914C23.5711 8.17692 22.4297 6.81275 21.2801 5.6191C23.938 3.15871 26.4329 1.81078 28.1288 1.81078V0C25.8867 0 22.9515 1.59154 19.9837 4.35236C17.0159 1.60778 14.0807 0.0324804 11.8386 0.0324804V1.84326C13.5263 1.84326 16.0294 3.18307 18.6873 5.62722C17.5459 6.82087 16.4044 8.17692 15.32 9.67914C13.4774 9.87402 11.7326 10.1745 10.1345 10.5723C9.947 9.76034 9.8084 8.97269 9.71056 8.21752C9.32735 5.11565 9.80025 2.70399 10.9009 2.0625C11.1455 1.91634 11.4635 1.85138 11.8386 1.85138V0.0406004C11.1537 0.0406004 10.534 0.186762 9.99592 0.495325C7.70485 1.81078 7.19119 5.91142 8.37342 11.0596C3.30208 12.6186 0 15.1115 0 17.7424C0 20.3814 3.31838 22.8824 8.40603 24.4333C7.23196 29.5977 7.75377 33.7065 10.053 35.0219C10.583 35.3305 11.2026 35.4766 11.8875 35.4766C14.1296 35.4766 17.0648 33.8851 20.0326 31.1243C23.0004 33.8689 25.9356 35.4442 28.1777 35.4442C28.8626 35.4442 29.4823 35.298 30.0204 34.9894C32.3115 33.674 32.8251 29.5733 31.6429 24.4252C36.6979 22.8743 40 20.3733 40 17.7424ZM29.3844 12.3263C29.0828 13.3738 28.7077 14.4537 28.2837 15.5337C27.9494 14.8841 27.5989 14.2345 27.2157 13.5849C26.8406 12.9353 26.4411 12.3019 26.0416 11.6848C27.1994 11.8553 28.3163 12.0664 29.3844 12.3263ZM25.6502 20.9742C25.0143 22.0704 24.362 23.1098 23.6853 24.076C22.4704 24.1816 21.2393 24.2384 20 24.2384C18.7689 24.2384 17.5377 24.1816 16.331 24.0842C15.6543 23.1179 14.9939 22.0866 14.3579 20.9985C13.7383 19.9348 13.1757 18.8548 12.662 17.7667C13.1676 16.6786 13.7383 15.5906 14.3498 14.5268C14.9857 13.4306 15.638 12.3912 16.3147 11.425C17.5296 11.3194 18.7607 11.2626 20 11.2626C21.2311 11.2626 22.4623 11.3194 23.669 11.4168C24.3457 12.3831 25.0061 13.4144 25.6421 14.5025C26.2617 15.5662 26.8243 16.6462 27.338 17.7343C26.8243 18.8223 26.2617 19.9104 25.6502 20.9742ZM28.2837 19.9186C28.724 21.0067 29.0991 22.0947 29.4089 23.1504C28.3408 23.4102 27.2157 23.6294 26.0497 23.8C26.4492 23.1747 26.8488 22.5332 27.2238 21.8755C27.5989 21.2259 27.9494 20.5682 28.2837 19.9186ZM20.0163 28.5827C19.2581 27.8032 18.4998 26.9343 17.7497 25.9843C18.4835 26.0167 19.2336 26.0411 19.9918 26.0411C20.7583 26.0411 21.5165 26.0249 22.2585 25.9843C21.5247 26.9343 20.7664 27.8032 20.0163 28.5827ZM13.9503 23.8C12.7925 23.6294 11.6755 23.4183 10.6074 23.1585C10.9091 22.111 11.2841 21.031 11.7081 19.951C12.0424 20.6006 12.393 21.2503 12.7762 21.8999C13.1594 22.5495 13.5508 23.1828 13.9503 23.8ZM19.9755 6.90207C20.7338 7.6816 21.4921 8.55045 22.2422 9.5005C21.5084 9.46801 20.7583 9.44366 20 9.44366C19.2336 9.44366 18.4753 9.4599 17.7334 9.5005C18.4672 8.55045 19.2254 7.6816 19.9755 6.90207ZM13.9421 11.6848C13.5426 12.31 13.1431 12.9515 12.768 13.6093C12.393 14.2589 12.0424 14.9085 11.7081 15.5581C11.2678 14.47 10.8928 13.3819 10.583 12.3263C11.651 12.0746 12.7762 11.8553 13.9421 11.6848ZM6.56339 21.8511C3.67713 20.625 1.81003 19.0172 1.81003 17.7424C1.81003 16.4675 3.67713 14.8516 6.56339 13.6336C7.26458 13.3332 8.03098 13.0652 8.82185 12.8135C9.28659 14.405 9.89808 16.0615 10.6563 17.7586C9.90624 19.4476 9.3029 21.096 8.84631 22.6794C8.03914 22.4277 7.27273 22.1516 6.56339 21.8511ZM10.9499 33.4547C9.84101 32.8214 9.35997 30.4097 9.73502 27.3078C9.82471 26.5445 9.97147 25.7407 10.1508 24.9205C11.7489 25.3103 13.4937 25.6107 15.3282 25.8056C16.4289 27.3078 17.5703 28.672 18.7199 29.8657C16.062 32.326 13.5671 33.674 11.8712 33.674C11.5043 33.6659 11.1945 33.5928 10.9499 33.4547ZM30.2894 27.2672C30.6726 30.3691 30.1998 32.7808 29.0991 33.4223C28.8545 33.5684 28.5365 33.6334 28.1614 33.6334C26.4737 33.6334 23.9707 32.2936 21.3127 29.8494C22.4541 28.6558 23.5956 27.2997 24.68 25.7975C26.5226 25.6026 28.2674 25.3022 29.8655 24.9043C30.053 25.7244 30.1998 26.5121 30.2894 27.2672ZM33.4285 21.8511C32.7273 22.1516 31.9609 22.4195 31.17 22.6713C30.7053 21.0797 30.0938 19.4232 29.3355 17.7261C30.0856 16.0372 30.689 14.3888 31.1455 12.8054C31.9527 13.0571 32.7191 13.3332 33.4366 13.6336C36.3229 14.8597 38.19 16.4675 38.19 17.7424C38.1818 19.0172 36.3147 20.6331 33.4285 21.8511Z" fill="#FFF2E2"/>
<path d="M19.9918 21.4535C22.0497 21.4535 23.7179 19.7921 23.7179 17.7426C23.7179 15.6932 22.0497 14.0317 19.9918 14.0317C17.934 14.0317 16.2658 15.6932 16.2658 17.7426C16.2658 19.7921 17.934 21.4535 19.9918 21.4535Z" fill="#FFF2E2"/>
</svg>
